# xmcd
#
# Track frame offsets: 
#        150
#        17152
#        35213
#        50136
#        67999
#        95266
#        111717
#        125476
#        141430
#        153570
#        170588
#
# Disc length: 2548 seconds
#
# Revision: 1
# Processed by: cddbd v1.5.2PL0 Copyright (c) Steve Scherf et al.
# Submitted via: ExactAudioCopy v0.99pb4
#
DISCID=a709f20b
DTITLE=Olivia Newton-John - Making A Good Thing Better
DYEAR=1981
DGENRE=Country
TTITLE0=Making A Good Thing Better
TTITLE1=Slow Dancing
TTITLE2=Ring Of Fire
TTITLE3=Coolin' Down
TTITLE4=Don't Cry For Me Argentina
TTITLE5=Sad Songs
TTITLE6=You Won't See Me Cry
TTITLE7=So Easy To Begin
TTITLE8=I Think I'll Say Goodbye
TTITLE9=Don't Ask A Friend
TTITLE10=If Love Is Real
EXTD=
EXTT0=
EXTT1=
EXTT2=
EXTT3=
EXTT4=
EXTT5=
EXTT6=
EXTT7=
EXTT8=
EXTT9=
EXTT10=
PLAYORDER=
